<svg xmlns="http://www.w3.org/2000/svg" width="16" height="16.001" viewBox="0 0 16 16.001">
  <g id="phone" transform="translate(0 0.001)">
    <path id="Path_23" data-name="Path 23" d="M15.086,10.4,11.949,9.008a1.542,1.542,0,0,0-1.824.442h0l-.947,1.185A12.427,12.427,0,0,1,5.365,6.823l1.184-.946a1.541,1.541,0,0,0,.444-1.826L5.6.914A1.539,1.539,0,0,0,3.807.049L1.155.738A1.545,1.545,0,0,0,.015,2.444,15.976,15.976,0,0,0,13.557,15.985a1.522,1.522,0,0,0,.212.015,1.544,1.544,0,0,0,1.493-1.154l.688-2.653A1.533,1.533,0,0,0,15.086,10.4Z" fill="#fff"/>
  </g>
</svg>
